<svg width="122" height="55" viewBox="0 0 122 55" fill="none" xmlns="http://www.w3.org/2000/svg">
<path d="M7.78189 14L12.6001 32.2594C13.6528 36.2506 14.6245 39.9823 15.3128 43.694H15.5355C16.3655 40.0621 17.56 36.2106 18.7746 32.2594L24.7265 14H30.2937L35.9419 31.9601C37.2983 36.2705 38.351 40.0621 39.1811 43.694H39.4645C40.1675 39.7613 41.0935 35.8705 42.238 32.0399L47.4408 14.0798H54L42.238 50H36.1646L30.5974 32.8581C29.322 28.867 28.2693 25.2949 27.3583 21.0643H27.3178C26.4049 25.0563 25.2626 28.9939 23.8965 32.8581L18.0256 49.9401H11.9523L1 14H7.78189Z" fill="#47585B"/>
<path d="M74.8258 0V10.4642H88V16.3988H74.8258V39.9192C74.8258 45.3451 76.6236 48.3972 81.7359 48.3972C83.5363 48.4606 85.3371 48.2808 87.073 47.8643L87.4944 53.7988C84.8796 54.6315 82.107 55.0341 79.3202 54.9858C77.4771 55.0668 75.6355 54.8012 73.9233 54.2072C72.2111 53.6133 70.6691 52.7052 69.4045 51.5461C66.7921 49.1238 65.8371 45.3451 65.8371 40.2099V16.3988H58V10.4642H65.8371V2.4465L74.8258 0Z" fill="#FFBA08"/>
<path d="M55 48.8074C75.6831 43.0952 87 34 87 34C87 34 75.3077 48.4191 55.8615 53" stroke="#FFBA08" stroke-miterlimit="10"/>
<path d="M1 52.456C19.0084 55.3403 37.1254 54.1808 55 49" stroke="#47585B" stroke-miterlimit="10"/>
<path d="M108.596 40C107.782 34.284 107.031 28.8835 106.233 23.2551L104.95 24.4299C102.093 27.2537 98.8074 29.4807 95.2489 31.0051C94.6894 31.2801 94.0778 31.3952 93.4688 31.3401C92.8598 31.285 92.2725 31.0615 91.7596 30.6895C89.5533 29.1115 87.2689 27.6386 85 26.1307C85.3399 25.5739 85.816 25.1388 86.371 24.8775C86.9261 24.6163 87.5367 24.54 88.1295 24.6579C89.9172 24.8713 91.7143 24.9708 93.5121 24.9559C94.0766 24.946 94.624 24.7375 95.0768 24.3598C101.336 18.3983 107.595 12.4134 113.854 6.40509C115.48 4.80078 117.586 3.94297 119.753 4.00295C121.693 4.00295 122.507 5.44072 121.677 7.50972C121.219 8.547 120.587 9.47568 119.815 10.245C117.984 12.1211 116.075 13.8921 114.167 15.663C113.919 15.8671 113.715 16.1303 113.568 16.4334C113.422 16.7366 113.338 17.0723 113.322 17.4164C112.915 23.3428 112.414 29.2693 112.007 35.1957C112.004 35.7959 111.869 36.3861 111.616 36.9148C111.362 37.4435 110.997 37.8947 110.552 38.2291C109.873 38.7809 109.22 39.372 108.596 40V40Z" fill="#47585B"/>
<path d="M91 15.0195C92.4798 13.5488 93.5141 11.6368 95.9009 12.0597C98.2876 12.4825 100.674 12.5009 103.189 12.7031L104 12.8318C102.186 14.6702 100.531 16.2145 98.8605 17.8139C98.7652 17.8939 98.6566 17.9499 98.5415 17.9784C98.4264 18.0069 98.3074 18.0072 98.1922 17.9794C95.9645 17.1705 93.7368 16.3432 91.5251 15.4975C91.366 15.4424 91.2546 15.2585 91 15.0195Z" fill="#47585B"/>
</svg>
